<?xml version="1.0" encoding="UTF-8" standalone="no"?>
<svg
   xmlns:dc="http://purl.org/dc/elements/1.1/"
   xmlns:cc="http://creativecommons.org/ns#"
   xmlns:rdf="http://www.w3.org/1999/02/22-rdf-syntax-ns#"
   xmlns:svg="http://www.w3.org/2000/svg"
   xmlns="http://www.w3.org/2000/svg"
   xmlns:sodipodi="http://sodipodi.sourceforge.net/DTD/sodipodi-0.dtd"
   xmlns:inkscape="http://www.inkscape.org/namespaces/inkscape"
   viewBox="1250 318 200 200"
   id="svg2"
   version="1.1"
   inkscape:version="0.91 r13725"
   sodipodi:docname="config_icon.svg"
   width="200"
   height="200">
  <metadata
     id="metadata16">
    <rdf:RDF>
      <cc:Work
         rdf:about="">
        <dc:format>image/svg+xml</dc:format>
        <dc:type
           rdf:resource="http://purl.org/dc/dcmitype/StillImage" />
        <dc:title></dc:title>
      </cc:Work>
    </rdf:RDF>
  </metadata>
  <sodipodi:namedview
     pagecolor="#ffffff"
     bordercolor="#666666"
     borderopacity="1"
     objecttolerance="10"
     gridtolerance="10"
     guidetolerance="10"
     inkscape:pageopacity="0"
     inkscape:pageshadow="2"
     inkscape:window-width="1920"
     inkscape:window-height="1001"
     id="namedview14"
     showgrid="false"
     inkscape:zoom="3.6875"
     inkscape:cx="114.94539"
     inkscape:cy="108.54831"
     inkscape:window-x="-9"
     inkscape:window-y="-9"
     inkscape:window-maximized="1"
     inkscape:current-layer="g8" />
  <defs
     id="defs4">
    <style
       id="style6">.a{fill:none;}.b{fill:#2699fb;}</style>
    <pattern
       y="0"
       x="0"
       height="6"
       width="6"
       patternUnits="userSpaceOnUse"
       id="EMFhbasepattern" />
  </defs>
  <g
     transform="matrix(8.9830509,0,0,8.9830509,-8145.0848,-40059.627)"
     id="g8">
    <rect
       class="a"
       width="16"
       height="16"
       transform="translate(1049,4498)"
       id="rect10"
       x="0"
       y="0"
       style="fill:none" />
  </g>
  <g
     transform="matrix(1.8878296,0,0,1.8878296,1259.3842,463.30791)"
     id="surface1">
    <path
       sodipodi:nodetypes="sccccccccsccccccccssccccssccsccssccccsssssss"
       inkscape:connector-curvature="0"
       id="path5"
       d="m 40.064095,-62.839267 c -1.003662,0 -1.773908,0.676886 -1.867272,1.680545 l -1.120364,10.083271 c -2.544158,1.027 -4.784884,2.450794 -6.908908,4.107999 l -9.336362,-4.107999 c -0.910296,-0.420121 -1.937296,-0.116697 -2.427453,0.746909 l -8.029273,13.817816 c -0.4901573,0.863612 -0.256751,2.03066 0.560182,2.614181 l 8.215998,5.788544 c -0.186726,1.33043 -0.186726,2.730884 -0.186726,4.108 0,1.377115 0,2.777568 0.186726,4.108 l -8.215998,5.788545 c -0.816933,0.583542 -1.0503393,1.750567 -0.560182,2.61418 l 8.029273,13.8178166 c 0.490157,0.8636097 1.517157,1.1437017 2.427453,0.7469077 l 9.336362,-4.1079988 c 2.124024,1.65720403 4.36475,3.0809986 6.908908,4.1079988 l 1.120364,10.0832707 c 0.09336,1.003662 0.86361,1.680545 1.867272,1.680545 l 15.871815,0 c 1.003659,0 1.960635,-0.676883 2.053999,-1.680545 L 58.923545,3.0754483 c 2.544159,-1.0270002 4.971613,-2.45079477 7.095635,-4.1079988 l 9.149636,4.1079988 c 0.910296,0.42012 2.124023,0.116708 2.61418,-0.7469077 l 7.842545,-13.8178166 c 0.490151,-0.863613 0.256758,-2.03066 -0.560181,-2.61418 l -8.215999,-5.788545 c 0.186733,-1.330432 0.373453,-2.730885 0.373453,-4.108 0,-1.377116 -0.186733,-2.77757 -0.373453,-4.108 l 8.215999,-5.788544 c 0.816932,-0.583544 1.050338,-1.750569 0.560181,-2.614181 l -7.842545,-13.817816 c -0.490151,-0.863611 -1.703884,-1.143703 -2.61418,-0.746909 l -9.149636,4.107999 c -2.124022,-1.657205 -4.551476,-3.080999 -7.095635,-4.107999 l -0.933636,-10.083271 c -0.09336,-1.003659 -1.05034,-1.680545 -2.053999,-1.680545 z m 8.029273,23.340905 c 8.58945,0 15.498359,6.908908 15.498359,15.498361 0,8.589452 -6.908909,15.4983603 -15.498359,15.4983603 -8.589454,0 -15.498363,-6.9089083 -15.498363,-15.4983603 0,-8.589453 6.908909,-15.498361 15.498363,-15.498361 z"
       style="fill:#2699fb;fill-opacity:1" />
  </g>
</svg>
