<svg xmlns="http://www.w3.org/2000/svg" viewBox="1131 978.968 71.056 91.982">
  <defs>
    <style>
      .cls-1 {
        fill: none;
        stroke: #323232;
        stroke-width: 6px;
      }

      .cls-2, .cls-3 {
        fill: #323232;
      }

      .cls-2 {
        fill-rule: evenodd;
      }

      .cls-4 {
        fill: #fbb161;
      }

      .cls-5 {
        fill: #fff;
      }

      .cls-6 {
        opacity: 0.2;
      }

      .cls-7 {
        fill: #060e1a;
      }
    </style>
  </defs>
  <g id="crawlspace_logo" transform="translate(1063.349 249.265)">
    <g id="g4233" transform="translate(70.651 732.704)">
      <circle id="path3418" class="cls-1" cx="32.528" cy="32.528" r="32.528" transform="translate(0)"/>
      <path id="path4231" class="cls-2" d="M147.55,1020.354l14.836,25.7,14.836-25.7Z" transform="translate(-129.857 -957.068)"/>
    </g>
    <g id="g4259" transform="translate(90.461 743.092)">
      <g id="g4337" transform="translate(0)">
        <g id="g4261" transform="translate(0.979 0.914)">
          <path id="path4263" class="cls-3" d="M65.932,42.538h0a36.027,36.027,0,0,0,.914,20.544h0a39.625,39.625,0,0,1,2.069,16.07L68.53,84.4H84.744l-.385-5.244a39.625,39.625,0,0,1,2.069-16.07h0a36.009,36.009,0,0,0,.914-20.544H65.932Z" transform="translate(-64.857 -42.538)"/>
        </g>
        <g id="g4265" transform="translate(4.651 37.528)">
          <g id="g4267" transform="translate(0 0.048)">
            <path id="polygon4269" class="cls-3" d="M76.883,167.785H93.1l-.385-5.2H77.268Z" transform="translate(-76.883 -162.589)"/>
          </g>
          <g id="g4271" transform="translate(0 0)">
            <path id="polygon4273" class="cls-4" d="M77.268,162.479v-.048l-.385.048Z" transform="translate(-76.883 -162.431)"/>
          </g>
          <g id="g4275" transform="translate(15.781 0)">
            <path id="polygon4277" class="cls-4" d="M128.607,162.479h.385l-.433-.048Z" transform="translate(-128.559 -162.431)"/>
          </g>
        </g>
        <g id="g4279" transform="translate(1.284 0.914)">
          <path id="path4281" class="cls-5" d="M88.8,46.627a38.321,38.321,0,0,0-.77-4.09H66.625a40.72,40.72,0,0,0-.77,4.09Z" transform="translate(-65.855 -42.538)"/>
        </g>
        <g id="g4283" class="cls-6" transform="translate(16.517 0.914)">
          <g id="g4285" transform="translate(0 0)">
            <path id="path4287" class="cls-7" d="M122.685,42.538h-5.2a36.394,36.394,0,0,1-.385,20.544h0c-1.78,5.148-1.443,10.633-1.058,16.07l.385,5.244h3.657l-.385-5.244a39.625,39.625,0,0,1,2.069-16.07h0A36.448,36.448,0,0,0,122.685,42.538Z" transform="translate(-115.739 -42.538)"/>
          </g>
        </g>
        <g id="g4289">
          <path id="path4291" class="cls-3" d="M82.517,83.279H66.3a.979.979,0,0,1-.722-.289.837.837,0,0,1-.241-.722l.385-5.244A38.577,38.577,0,0,0,63.705,61.34a37,37,0,0,1-.962-21.073.927.927,0,0,1,.914-.722h21.41a.927.927,0,0,1,.914.722,36.588,36.588,0,0,1-.962,21.073A37.769,37.769,0,0,0,83,77.024l.385,5.244a.945.945,0,0,1-.241.722A.715.715,0,0,1,82.517,83.279Zm-15.2-1.925H81.459l-.337-4.234a40.7,40.7,0,0,1,2.165-16.455,34.946,34.946,0,0,0,1.058-19.245H64.427a34.946,34.946,0,0,0,1.058,19.245A40.78,40.78,0,0,1,67.6,77.121Z" transform="translate(-61.652 -39.544)"/>
        </g>
      </g>
    </g>
  </g>
</svg>
