<svg version="1" xmlns="http://www.w3.org/2000/svg" width="800" height="800" viewBox="0 0 600.000000 600.000000"><path d="M0 300v300h600V0H0v300zm217.9-141.4c11.3 2 17.8 3.9 28.1 8.3 21.4 9.2 42.4 27.5 52.8 46.1l3.1 5.5-20.1 13.8c-11 7.6-20.6 14.1-21.3 14.3-.7.3-2.5-1.7-4.2-4.8-13.3-23.4-36.7-36.1-66.8-36.1-14.5 0-22.8 1.8-34.2 7.4-23.8 11.7-40 35.3-45.9 66.7-2.2 11.9-1.5 36.4 1.5 47.4 7.7 28.4 24.2 49.5 47.4 60.8 12.3 5.9 19.6 7.3 35.7 6.7 15.4-.5 22.6-2.3 35.3-9 10.5-5.4 21.9-16.1 27.2-25.6 2.2-3.9 4.5-7 5.1-6.8.6.1 10.8 5.8 22.7 12.6l21.6 12.4-1.4 3.5c-2.6 6-10.5 17-17 23.7-19 19.2-46.6 32.5-78 37.5-18.8 3-45.3.6-62.7-5.6C87.6 416.1 45.8 349.5 52 286c4.9-50.9 33-93.4 76-115 16.2-8.1 29.9-12.1 48-14.1 9.9-1 31.1-.2 41.9 1.7zM459 157c13.7 1.7 28.8 5.7 42.8 11.4 11.5 4.7 29 13.7 34.6 17.9 1.8 1.3 1.3 2.4-9.3 21.9-6.1 11.3-11.7 21.2-12.4 22.1-1.1 1.5-1.9 1.2-7.7-2.9-13.1-9.2-33.6-17.7-50.6-21-9-1.7-29.1-1.9-36.6-.3-17.7 3.7-27.1 14.1-27.2 29.9 0 8.7 1.9 13.4 8.1 19.1 8.1 7.7 14.9 10.4 50.3 20.1 49.8 13.6 68.3 22.4 81.9 38.7 11.3 13.7 15.7 28.7 14.8 51-.6 15.6-2.1 22.3-7.7 33.6-11.2 22.8-32.1 37.1-64 43.7-14.2 2.9-41.7 3.5-59 1.3-22.2-2.8-45.3-9.4-64.8-18.5-8.2-3.9-21.6-11.5-26-14.9l-2.4-1.8 4.2-8.4c2.3-4.6 7.8-15.2 12.2-23.6l7.9-15.2 8 5.5c15.4 10.5 35.5 19.5 54.8 24.6 10.1 2.7 13.8 3.1 28.7 3.5 15 .5 18 .3 25.3-1.6 16.4-4.1 24-12.2 24.1-25.5 0-11.4-3.7-17.9-14.3-24.7-8.1-5.2-17.2-8.6-47.2-17.4-38.4-11.3-49.7-15.6-62.1-23.7-17.7-11.6-26.8-26.1-29.5-46.8-3.1-24.7 4.6-50 20.7-68 13.3-14.7 38.6-26.8 62.9-29.9 10-1.2 29.6-1.3 39.5-.1z"/></svg>